<svg xmlns="http://www.w3.org/2000/svg" viewBox="0 0 32 32" fill="none">
  <path fill="currentColor" d="M16.1 2C9.13 2 3.47 7.11 3.47 13.42c0 3.95 2.2 7.43 5.56 9.49V30l4.5-2.48c.84.17 1.7.25 2.57.25 6.96 0 12.63-5.12 12.63-11.43C28.73 7.11 23.06 2 16.1 2Zm.26 22.8c-.79 0-1.58-.08-2.33-.24l-.55-.12-2.62 1.44 1.02-2.43-.5-.32c-2.9-1.83-4.65-4.69-4.65-7.7 0-5.34 4.34-9.68 9.67-9.68 5.33 0 9.68 4.34 9.68 9.68 0 5.34-4.35 9.37-10.72 9.37Zm5.21-5.83c-.27-.13-1.6-.79-1.85-.88-.25-.09-.43-.13-.61.14-.18.27-.7.88-.86 1.06-.16.18-.31.21-.58.07-.27-.13-1.13-.42-2.15-1.34a7.96 7.96 0 0 1-1.5-1.87c-.16-.27-.02-.42.12-.56.12-.12.27-.31.4-.46.13-.16.18-.26.27-.44.09-.18.05-.33-.02-.46-.07-.13-.61-1.47-.83-2.01-.22-.53-.45-.46-.61-.47h-.52c-.18 0-.46.07-.7.33-.24.27-.92.9-.92 2.2 0 1.3.95 2.56 1.08 2.74.13.18 1.85 2.84 4.47 3.99.62.27 1.11.43 1.49.55.63.2 1.21.17 1.66.11.51-.08 1.58-.65 1.8-1.29.22-.64.22-1.17.15-1.28-.07-.11-.25-.18-.52-.31Zm-3.86-9.95a1.1 1.1 0 0 1 1.1 1.1c0 .61-.49 1.1-1.1 1.1a1.1 1.1 0 0 1-1.1-1.1c0-.6.49-1.1 1.1-1.1Zm3.72.5a.86.86 0 0 1 .86.86.86.86 0 1 1-1.72 0 .86.86 0 0 1 .86-.86Z"/>
</svg>
